<svg width="510" height="364" viewBox="0 0 510 364" fill="none" xmlns="http://www.w3.org/2000/svg">
<path d="M275 172H353V322H275V172Z" fill="#43806C"/>
<path d="M300.852 158.499C300.601 158.222 300.267 157.992 299.851 157.81C299.444 157.628 298.98 157.528 298.46 157.511V160.982C298.478 160.982 298.491 160.986 298.499 160.995C298.517 160.995 298.534 160.995 298.551 160.995C299.045 161.099 299.487 161.216 299.877 161.346C300.276 161.476 300.614 161.641 300.891 161.84C301.169 162.031 301.381 162.265 301.528 162.542C301.676 162.819 301.749 163.166 301.749 163.582C301.749 163.998 301.667 164.362 301.502 164.674C301.346 164.986 301.125 165.246 300.839 165.454C300.553 165.653 300.211 165.805 299.812 165.909C299.422 166.013 298.993 166.069 298.525 166.078V167.339H298.044V166.065C296.779 166.004 295.67 165.562 294.716 164.739L295.171 163.998C295.475 164.327 295.878 164.609 296.38 164.843C296.892 165.077 297.459 165.216 298.083 165.259V161.788L298.005 161.762C297.52 161.649 297.095 161.532 296.731 161.411C296.367 161.29 296.06 161.138 295.808 160.956C295.557 160.774 295.366 160.557 295.236 160.306C295.115 160.046 295.054 159.73 295.054 159.357C295.054 158.95 295.128 158.59 295.275 158.278C295.423 157.957 295.626 157.689 295.886 157.472C296.146 157.247 296.458 157.073 296.822 156.952C297.195 156.822 297.602 156.744 298.044 156.718V155.405H298.525V156.705C299.097 156.722 299.609 156.826 300.059 157.017C300.519 157.199 300.93 157.45 301.294 157.771L300.852 158.499ZM300.787 163.673C300.787 163.413 300.735 163.192 300.631 163.01C300.536 162.828 300.389 162.668 300.189 162.529C299.999 162.39 299.756 162.269 299.461 162.165C299.175 162.061 298.842 161.961 298.46 161.866V165.272C299.197 165.272 299.769 165.142 300.176 164.882C300.584 164.613 300.787 164.21 300.787 163.673ZM295.99 159.227C295.99 159.478 296.029 159.691 296.107 159.864C296.194 160.029 296.32 160.176 296.484 160.306C296.658 160.427 296.874 160.536 297.134 160.631C297.403 160.718 297.719 160.804 298.083 160.891V157.524C297.347 157.559 296.814 157.728 296.484 158.031C296.155 158.334 295.99 158.733 295.99 159.227ZM307.549 165.194V166H303.142V165.194H304.988V159.63C304.919 159.734 304.797 159.847 304.624 159.968C304.459 160.089 304.273 160.202 304.065 160.306C303.866 160.41 303.658 160.497 303.441 160.566C303.224 160.635 303.034 160.67 302.869 160.67V159.812C303.068 159.812 303.285 159.756 303.519 159.643C303.762 159.53 303.987 159.4 304.195 159.253C304.412 159.106 304.594 158.967 304.741 158.837C304.888 158.707 304.971 158.62 304.988 158.577H305.898V165.194H307.549ZM308.95 167.053L309.171 165.961H308.872V164.726H309.73V165.961L309.405 167.053H308.95ZM318.018 162.958C318.018 163.4 317.932 163.816 317.758 164.206C317.594 164.587 317.364 164.921 317.069 165.207C316.775 165.493 316.428 165.718 316.029 165.883C315.631 166.048 315.202 166.13 314.742 166.13C314.257 166.13 313.811 166.043 313.403 165.87C312.996 165.688 312.645 165.432 312.35 165.103C312.064 164.774 311.839 164.371 311.674 163.894C311.51 163.409 311.427 162.867 311.427 162.269C311.427 161.333 311.51 160.518 311.674 159.825C311.839 159.123 312.069 158.542 312.363 158.083C312.667 157.615 313.026 157.268 313.442 157.043C313.858 156.818 314.322 156.705 314.833 156.705C315.449 156.705 315.999 156.857 316.484 157.16C316.97 157.463 317.338 157.884 317.589 158.421L317.017 158.941C316.835 158.499 316.549 158.148 316.159 157.888C315.769 157.619 315.327 157.485 314.833 157.485C314.452 157.485 314.105 157.576 313.793 157.758C313.481 157.94 313.213 158.204 312.987 158.551C312.771 158.889 312.597 159.309 312.467 159.812C312.346 160.315 312.285 160.882 312.285 161.515C312.476 161.004 312.801 160.596 313.26 160.293C313.728 159.99 314.257 159.838 314.846 159.838C315.288 159.838 315.7 159.92 316.081 160.085C316.471 160.241 316.809 160.462 317.095 160.748C317.381 161.025 317.607 161.355 317.771 161.736C317.936 162.117 318.018 162.525 318.018 162.958ZM314.768 165.35C315.098 165.35 315.405 165.289 315.691 165.168C315.986 165.038 316.242 164.865 316.458 164.648C316.684 164.431 316.857 164.18 316.978 163.894C317.108 163.599 317.173 163.287 317.173 162.958C317.173 162.629 317.108 162.321 316.978 162.035C316.848 161.74 316.671 161.485 316.445 161.268C316.229 161.051 315.973 160.882 315.678 160.761C315.392 160.631 315.085 160.566 314.755 160.566C314.426 160.566 314.114 160.631 313.819 160.761C313.533 160.882 313.278 161.051 313.052 161.268C312.836 161.485 312.662 161.74 312.532 162.035C312.411 162.321 312.35 162.629 312.35 162.958C312.35 163.287 312.415 163.595 312.545 163.881C312.675 164.167 312.849 164.423 313.065 164.648C313.291 164.865 313.546 165.038 313.832 165.168C314.127 165.289 314.439 165.35 314.768 165.35ZM323.212 167.651V165.337H318.883V164.557L323.498 158.577H324.096V164.531H325.24V165.337H324.096V167.651H323.212ZM319.819 164.531H323.303V159.968L319.819 164.531ZM330.309 167.651V165.337H325.98V164.557L330.595 158.577H331.193V164.531H332.337V165.337H331.193V167.651H330.309ZM326.916 164.531H330.4V159.968L326.916 164.531Z" fill="#214E41"/>
<path d="M282.816 358V348.77H286.17C286.924 348.77 287.583 348.891 288.146 349.134C288.718 349.377 289.195 349.706 289.576 350.122C289.958 350.538 290.244 351.028 290.434 351.591C290.625 352.146 290.72 352.739 290.72 353.372C290.72 354.074 290.612 354.711 290.395 355.283C290.187 355.846 289.884 356.332 289.485 356.739C289.087 357.138 288.606 357.45 288.042 357.675C287.488 357.892 286.864 358 286.17 358H282.816ZM288.913 353.372C288.913 352.93 288.853 352.523 288.731 352.15C288.61 351.777 288.432 351.457 288.198 351.188C287.964 350.919 287.674 350.711 287.327 350.564C286.989 350.417 286.604 350.343 286.17 350.343H284.61V356.427H286.17C286.612 356.427 287.002 356.349 287.34 356.193C287.687 356.037 287.973 355.825 288.198 355.556C288.432 355.279 288.61 354.954 288.731 354.581C288.853 354.208 288.913 353.805 288.913 353.372ZM295.112 358.13C294.566 358.13 294.072 358.039 293.63 357.857C293.188 357.666 292.811 357.411 292.499 357.09C292.187 356.769 291.944 356.397 291.771 355.972C291.606 355.547 291.524 355.101 291.524 354.633C291.524 354.148 291.606 353.693 291.771 353.268C291.936 352.835 292.174 352.458 292.486 352.137C292.798 351.808 293.175 351.548 293.617 351.357C294.068 351.166 294.57 351.071 295.125 351.071C295.68 351.071 296.174 351.166 296.607 351.357C297.049 351.548 297.422 351.803 297.725 352.124C298.037 352.445 298.271 352.817 298.427 353.242C298.592 353.667 298.674 354.109 298.674 354.568C298.674 354.681 298.67 354.789 298.661 354.893C298.661 354.997 298.652 355.084 298.635 355.153H293.37C293.396 355.422 293.461 355.66 293.565 355.868C293.669 356.076 293.803 356.254 293.968 356.401C294.133 356.548 294.319 356.661 294.527 356.739C294.735 356.817 294.952 356.856 295.177 356.856C295.524 356.856 295.849 356.774 296.152 356.609C296.464 356.436 296.676 356.21 296.789 355.933L298.284 356.349C298.033 356.869 297.63 357.298 297.075 357.636C296.529 357.965 295.875 358.13 295.112 358.13ZM296.88 354.022C296.837 353.511 296.646 353.103 296.308 352.8C295.979 352.488 295.576 352.332 295.099 352.332C294.865 352.332 294.644 352.375 294.436 352.462C294.237 352.54 294.059 352.653 293.903 352.8C293.747 352.947 293.617 353.125 293.513 353.333C293.418 353.541 293.361 353.771 293.344 354.022H296.88ZM302.556 358.13C302.088 358.13 301.655 358.039 301.256 357.857C300.858 357.675 300.515 357.424 300.229 357.103C299.943 356.782 299.718 356.41 299.553 355.985C299.397 355.552 299.319 355.088 299.319 354.594C299.319 354.1 299.393 353.641 299.54 353.216C299.696 352.791 299.909 352.419 300.177 352.098C300.446 351.777 300.767 351.526 301.139 351.344C301.512 351.162 301.919 351.071 302.361 351.071C302.864 351.071 303.315 351.192 303.713 351.435C304.121 351.678 304.437 351.994 304.662 352.384V348.51H306.404V355.998C306.404 356.18 306.435 356.31 306.495 356.388C306.556 356.466 306.66 356.509 306.807 356.518V358C306.504 358.061 306.257 358.091 306.066 358.091C305.754 358.091 305.499 358.013 305.299 357.857C305.1 357.701 304.987 357.497 304.961 357.246L304.922 356.817C304.671 357.25 304.329 357.58 303.895 357.805C303.471 358.022 303.024 358.13 302.556 358.13ZM303.011 356.648C303.176 356.648 303.345 356.622 303.518 356.57C303.692 356.509 303.852 356.427 303.999 356.323C304.147 356.219 304.277 356.098 304.389 355.959C304.511 355.82 304.602 355.669 304.662 355.504V353.879C304.593 353.688 304.493 353.515 304.363 353.359C304.242 353.194 304.099 353.056 303.934 352.943C303.778 352.822 303.609 352.726 303.427 352.657C303.254 352.588 303.081 352.553 302.907 352.553C302.647 352.553 302.405 352.609 302.179 352.722C301.963 352.835 301.776 352.991 301.62 353.19C301.464 353.381 301.343 353.602 301.256 353.853C301.17 354.104 301.126 354.364 301.126 354.633C301.126 354.919 301.174 355.183 301.269 355.426C301.365 355.669 301.495 355.881 301.659 356.063C301.824 356.245 302.019 356.388 302.244 356.492C302.478 356.596 302.734 356.648 303.011 356.648ZM310.194 358.13C309.492 358.13 308.959 357.905 308.595 357.454C308.231 357.003 308.049 356.336 308.049 355.452V351.188H309.791V355.075C309.791 356.124 310.168 356.648 310.922 356.648C311.26 356.648 311.585 356.548 311.897 356.349C312.218 356.141 312.478 355.829 312.677 355.413V351.188H314.419V355.998C314.419 356.18 314.45 356.31 314.51 356.388C314.58 356.466 314.688 356.509 314.835 356.518V358C314.662 358.035 314.515 358.056 314.393 358.065C314.281 358.074 314.177 358.078 314.081 358.078C313.769 358.078 313.514 358.009 313.314 357.87C313.124 357.723 313.011 357.523 312.976 357.272L312.937 356.726C312.634 357.194 312.244 357.545 311.767 357.779C311.291 358.013 310.766 358.13 310.194 358.13ZM315.721 354.594C315.721 354.117 315.804 353.667 315.968 353.242C316.133 352.817 316.371 352.445 316.683 352.124C316.995 351.803 317.372 351.548 317.814 351.357C318.256 351.166 318.755 351.071 319.309 351.071C320.055 351.071 320.687 351.231 321.207 351.552C321.736 351.873 322.13 352.293 322.39 352.813L320.687 353.333C320.54 353.082 320.345 352.891 320.102 352.761C319.86 352.622 319.591 352.553 319.296 352.553C319.045 352.553 318.811 352.605 318.594 352.709C318.378 352.804 318.187 352.943 318.022 353.125C317.866 353.298 317.741 353.511 317.645 353.762C317.559 354.013 317.515 354.291 317.515 354.594C317.515 354.897 317.563 355.175 317.658 355.426C317.754 355.677 317.879 355.894 318.035 356.076C318.2 356.258 318.391 356.401 318.607 356.505C318.824 356.6 319.054 356.648 319.296 356.648C319.608 356.648 319.894 356.57 320.154 356.414C320.423 356.258 320.609 356.067 320.713 355.842L322.416 356.362C322.182 356.882 321.797 357.307 321.259 357.636C320.722 357.965 320.076 358.13 319.322 358.13C318.768 358.13 318.269 358.035 317.827 357.844C317.385 357.653 317.008 357.398 316.696 357.077C316.384 356.748 316.142 356.371 315.968 355.946C315.804 355.513 315.721 355.062 315.721 354.594ZM327.57 357.649C327.336 357.753 327.05 357.857 326.712 357.961C326.374 358.065 326.019 358.117 325.646 358.117C325.404 358.117 325.174 358.087 324.957 358.026C324.749 357.965 324.563 357.87 324.398 357.74C324.242 357.601 324.117 357.428 324.021 357.22C323.926 357.003 323.878 356.743 323.878 356.44V352.527H322.981V351.188H323.878V348.978H325.62V351.188H327.05V352.527H325.62V355.855C325.62 356.098 325.681 356.271 325.802 356.375C325.932 356.47 326.088 356.518 326.27 356.518C326.452 356.518 326.63 356.488 326.803 356.427C326.977 356.366 327.115 356.314 327.219 356.271L327.57 357.649ZM328.478 358V351.188H330.22V358H328.478ZM328.478 350.239V348.51H330.22V350.239H328.478ZM335.665 358.13C335.145 358.13 334.681 358.013 334.274 357.779C333.867 357.545 333.546 357.224 333.312 356.817V358H331.791V348.51H333.533V352.384C333.776 351.968 334.092 351.647 334.482 351.422C334.881 351.188 335.344 351.071 335.873 351.071C336.315 351.071 336.718 351.166 337.082 351.357C337.446 351.548 337.758 351.803 338.018 352.124C338.287 352.445 338.49 352.822 338.629 353.255C338.776 353.688 338.85 354.143 338.85 354.62C338.85 355.114 338.768 355.573 338.603 355.998C338.447 356.423 338.226 356.795 337.94 357.116C337.654 357.428 337.316 357.675 336.926 357.857C336.536 358.039 336.116 358.13 335.665 358.13ZM335.184 356.648C335.461 356.648 335.717 356.596 335.951 356.492C336.185 356.379 336.384 356.232 336.549 356.05C336.714 355.868 336.839 355.656 336.926 355.413C337.021 355.17 337.069 354.91 337.069 354.633C337.069 354.356 337.026 354.091 336.939 353.84C336.852 353.589 336.727 353.368 336.562 353.177C336.406 352.986 336.22 352.835 336.003 352.722C335.786 352.609 335.548 352.553 335.288 352.553C334.898 352.553 334.547 352.683 334.235 352.943C333.932 353.194 333.698 353.506 333.533 353.879V355.504C333.594 355.677 333.68 355.833 333.793 355.972C333.914 356.111 334.049 356.232 334.196 356.336C334.343 356.431 334.504 356.509 334.677 356.57C334.85 356.622 335.019 356.648 335.184 356.648ZM340.017 348.51H341.759V355.816C341.759 356.067 341.82 356.262 341.941 356.401C342.063 356.54 342.236 356.609 342.461 356.609C342.565 356.609 342.678 356.592 342.799 356.557C342.929 356.522 343.051 356.479 343.163 356.427L343.397 357.753C343.163 357.866 342.89 357.952 342.578 358.013C342.266 358.074 341.985 358.104 341.733 358.104C341.187 358.104 340.763 357.961 340.459 357.675C340.165 357.38 340.017 356.964 340.017 356.427V348.51ZM347.315 358.13C346.769 358.13 346.275 358.039 345.833 357.857C345.391 357.666 345.014 357.411 344.702 357.09C344.39 356.769 344.148 356.397 343.974 355.972C343.81 355.547 343.727 355.101 343.727 354.633C343.727 354.148 343.81 353.693 343.974 353.268C344.139 352.835 344.377 352.458 344.689 352.137C345.001 351.808 345.378 351.548 345.82 351.357C346.271 351.166 346.774 351.071 347.328 351.071C347.883 351.071 348.377 351.166 348.81 351.357C349.252 351.548 349.625 351.803 349.928 352.124C350.24 352.445 350.474 352.817 350.63 353.242C350.795 353.667 350.877 354.109 350.877 354.568C350.877 354.681 350.873 354.789 350.864 354.893C350.864 354.997 350.856 355.084 350.838 355.153H345.573C345.599 355.422 345.664 355.66 345.768 355.868C345.872 356.076 346.007 356.254 346.171 356.401C346.336 356.548 346.522 356.661 346.73 356.739C346.938 356.817 347.155 356.856 347.38 356.856C347.727 356.856 348.052 356.774 348.355 356.609C348.667 356.436 348.88 356.21 348.992 355.933L350.487 356.349C350.236 356.869 349.833 357.298 349.278 357.636C348.732 357.965 348.078 358.13 347.315 358.13ZM349.083 354.022C349.04 353.511 348.849 353.103 348.511 352.8C348.182 352.488 347.779 352.332 347.302 352.332C347.068 352.332 346.847 352.375 346.639 352.462C346.44 352.54 346.262 352.653 346.106 352.8C345.95 352.947 345.82 353.125 345.716 353.333C345.621 353.541 345.565 353.771 345.547 354.022H349.083Z" fill="#214E41"/>
<path d="M393 22H471V322H393V22Z" fill="#43806C"/>
<path d="M417.837 8.499C417.585 8.22167 417.252 7.992 416.836 7.81C416.428 7.628 415.965 7.52833 415.445 7.511V10.982C415.462 10.982 415.475 10.9863 415.484 10.995C415.501 10.995 415.518 10.995 415.536 10.995C416.03 11.099 416.472 11.216 416.862 11.346C417.26 11.476 417.598 11.6407 417.876 11.84C418.153 12.0307 418.365 12.2647 418.513 12.542C418.66 12.8193 418.734 13.166 418.734 13.582C418.734 13.998 418.651 14.362 418.487 14.674C418.331 14.986 418.11 15.246 417.824 15.454C417.538 15.6533 417.195 15.805 416.797 15.909C416.407 16.013 415.978 16.0693 415.51 16.078V17.339H415.029V16.065C413.763 16.0043 412.654 15.5623 411.701 14.739L412.156 13.998C412.459 14.3273 412.862 14.609 413.365 14.843C413.876 15.077 414.444 15.2157 415.068 15.259V11.788L414.99 11.762C414.504 11.6493 414.08 11.5323 413.716 11.411C413.352 11.2897 413.044 11.138 412.793 10.956C412.541 10.774 412.351 10.5573 412.221 10.306C412.099 10.046 412.039 9.72967 412.039 9.357C412.039 8.94967 412.112 8.59 412.26 8.278C412.407 7.95733 412.611 7.68867 412.871 7.472C413.131 7.24667 413.443 7.07333 413.807 6.952C414.179 6.822 414.587 6.744 415.029 6.718V5.405H415.51V6.705C416.082 6.72233 416.593 6.82633 417.044 7.017C417.503 7.199 417.915 7.45033 418.279 7.771L417.837 8.499ZM417.772 13.673C417.772 13.413 417.72 13.192 417.616 13.01C417.52 12.828 417.373 12.6677 417.174 12.529C416.983 12.3903 416.74 12.269 416.446 12.165C416.16 12.061 415.826 11.9613 415.445 11.866V15.272C416.181 15.272 416.753 15.142 417.161 14.882C417.568 14.6133 417.772 14.2103 417.772 13.673ZM412.975 9.227C412.975 9.47833 413.014 9.69067 413.092 9.864C413.178 10.0287 413.304 10.176 413.469 10.306C413.642 10.4273 413.859 10.5357 414.119 10.631C414.387 10.7177 414.704 10.8043 415.068 10.891V7.524C414.331 7.55867 413.798 7.72767 413.469 8.031C413.139 8.33433 412.975 8.733 412.975 9.227ZM423.883 17.651V15.337H419.554V14.557L424.169 8.577H424.767V14.531H425.911V15.337H424.767V17.651H423.883ZM420.49 14.531H423.974V9.968L420.49 14.531ZM427.47 17.053L427.691 15.961H427.392V14.726H428.25V15.961L427.925 17.053H427.47ZM436.513 12.191C436.513 12.763 436.431 13.2917 436.266 13.777C436.101 14.2537 435.872 14.6697 435.577 15.025C435.291 15.3717 434.949 15.6447 434.55 15.844C434.151 16.0347 433.718 16.13 433.25 16.13C432.782 16.13 432.349 16.0347 431.95 15.844C431.551 15.6447 431.205 15.3717 430.91 15.025C430.624 14.6697 430.399 14.2537 430.234 13.777C430.069 13.2917 429.987 12.763 429.987 12.191C429.987 11.619 430.069 11.0947 430.234 10.618C430.399 10.1327 430.624 9.71667 430.91 9.37C431.205 9.01467 431.551 8.73733 431.95 8.538C432.349 8.33867 432.782 8.239 433.25 8.239C433.718 8.239 434.151 8.33867 434.55 8.538C434.949 8.73733 435.291 9.01467 435.577 9.37C435.872 9.71667 436.101 10.1327 436.266 10.618C436.431 11.0947 436.513 11.619 436.513 12.191ZM435.616 12.191C435.616 11.723 435.555 11.2983 435.434 10.917C435.321 10.5357 435.161 10.2107 434.953 9.942C434.745 9.66467 434.494 9.45233 434.199 9.305C433.913 9.149 433.597 9.071 433.25 9.071C432.895 9.071 432.57 9.149 432.275 9.305C431.989 9.45233 431.742 9.66467 431.534 9.942C431.326 10.2107 431.161 10.5357 431.04 10.917C430.927 11.2983 430.871 11.723 430.871 12.191C430.871 12.659 430.927 13.0837 431.04 13.465C431.161 13.8463 431.326 14.1757 431.534 14.453C431.742 14.7217 431.989 14.9297 432.275 15.077C432.57 15.2243 432.895 15.298 433.25 15.298C433.597 15.298 433.913 15.2243 434.199 15.077C434.494 14.9297 434.745 14.7217 434.953 14.453C435.161 14.1757 435.321 13.8463 435.434 13.465C435.555 13.0837 435.616 12.659 435.616 12.191ZM441.691 12.932C442.263 13.0273 442.718 13.2873 443.056 13.712C443.403 14.1367 443.576 14.661 443.576 15.285C443.576 15.675 443.502 16.0303 443.355 16.351C443.216 16.6803 443.013 16.9577 442.744 17.183C442.484 17.417 442.168 17.5947 441.795 17.716C441.431 17.846 441.024 17.911 440.573 17.911C439.914 17.911 439.338 17.7767 438.844 17.508C438.35 17.248 437.977 16.884 437.726 16.416L438.337 15.857C438.519 16.2383 438.796 16.5417 439.169 16.767C439.542 16.9923 440.01 17.105 440.573 17.105C441.223 17.105 441.734 16.9447 442.107 16.624C442.48 16.312 442.666 15.8613 442.666 15.272C442.666 14.674 442.471 14.2017 442.081 13.855C441.691 13.5083 441.128 13.335 440.391 13.335H440.066V12.581H440.417C441.084 12.581 441.596 12.4293 441.951 12.126C442.306 11.814 442.484 11.411 442.484 10.917C442.484 10.657 442.436 10.4273 442.341 10.228C442.246 10.0287 442.111 9.864 441.938 9.734C441.773 9.59533 441.574 9.49133 441.34 9.422C441.115 9.35267 440.868 9.318 440.599 9.318C440.105 9.318 439.667 9.43067 439.286 9.656C438.913 9.87267 438.632 10.176 438.441 10.566L437.869 10.02C437.973 9.79467 438.12 9.591 438.311 9.409C438.502 9.21833 438.718 9.058 438.961 8.928C439.204 8.798 439.472 8.69833 439.767 8.629C440.062 8.551 440.365 8.512 440.677 8.512C441.076 8.512 441.44 8.56833 441.769 8.681C442.107 8.79367 442.397 8.954 442.64 9.162C442.883 9.36133 443.069 9.604 443.199 9.89C443.338 10.176 443.407 10.4923 443.407 10.839C443.407 11.099 443.368 11.3503 443.29 11.593C443.212 11.827 443.099 12.0393 442.952 12.23C442.805 12.412 442.623 12.568 442.406 12.698C442.198 12.8193 441.96 12.8973 441.691 12.932ZM444.644 11.749C444.644 11.307 444.727 10.8953 444.891 10.514C445.065 10.124 445.299 9.786 445.593 9.5C445.888 9.214 446.235 8.98867 446.633 8.824C447.032 8.65933 447.461 8.577 447.92 8.577C448.406 8.577 448.852 8.668 449.259 8.85C449.667 9.02333 450.013 9.27467 450.299 9.604C450.594 9.93333 450.824 10.3407 450.988 10.826C451.153 11.3027 451.235 11.84 451.235 12.438C451.235 13.374 451.153 14.193 450.988 14.895C450.824 15.5883 450.59 16.1647 450.286 16.624C449.992 17.092 449.632 17.4387 449.207 17.664C448.791 17.8893 448.332 18.002 447.829 18.002C447.223 18.002 446.672 17.8503 446.178 17.547C445.693 17.2437 445.325 16.8233 445.073 16.286L445.645 15.766C445.827 16.208 446.113 16.559 446.503 16.819C446.902 17.0877 447.344 17.222 447.829 17.222C448.211 17.222 448.557 17.131 448.869 16.949C449.181 16.767 449.45 16.5027 449.675 16.156C449.901 15.818 450.074 15.402 450.195 14.908C450.317 14.4053 450.382 13.8333 450.39 13.192C450.191 13.7033 449.857 14.1107 449.389 14.414C448.93 14.7173 448.406 14.869 447.816 14.869C447.374 14.869 446.958 14.791 446.568 14.635C446.187 14.4703 445.853 14.2493 445.567 13.972C445.281 13.686 445.056 13.3523 444.891 12.971C444.727 12.5897 444.644 12.1823 444.644 11.749ZM447.907 9.357C447.578 9.357 447.266 9.422 446.971 9.552C446.685 9.67333 446.43 9.84233 446.204 10.059C445.988 10.2757 445.814 10.5313 445.684 10.826C445.554 11.112 445.489 11.4197 445.489 11.749C445.489 12.0783 445.554 12.3903 445.684 12.685C445.814 12.971 445.988 13.2223 446.204 13.439C446.43 13.6557 446.685 13.829 446.971 13.959C447.266 14.0803 447.578 14.141 447.907 14.141C448.237 14.141 448.549 14.0803 448.843 13.959C449.138 13.829 449.394 13.6557 449.61 13.439C449.827 13.2223 449.996 12.971 450.117 12.685C450.247 12.3903 450.312 12.0783 450.312 11.749C450.312 11.4283 450.247 11.125 450.117 10.839C449.996 10.5443 449.823 10.2887 449.597 10.072C449.381 9.84667 449.125 9.67333 448.83 9.552C448.544 9.422 448.237 9.357 447.907 9.357Z" fill="#214E41"/>
<path d="M403.925 348.77H405.511L409.021 358H407.175L406.317 355.699H403.093L402.248 358H400.402L403.925 348.77ZM405.992 354.438L404.718 350.811L403.392 354.438H405.992ZM416.196 358H414.454V354.178C414.454 353.632 414.358 353.233 414.168 352.982C413.977 352.731 413.713 352.605 413.375 352.605C413.201 352.605 413.024 352.64 412.842 352.709C412.66 352.778 412.486 352.878 412.322 353.008C412.166 353.129 412.023 353.277 411.893 353.45C411.763 353.623 411.667 353.814 411.607 354.022V358H409.865V351.188H411.438V352.449C411.689 352.016 412.053 351.678 412.53 351.435C413.006 351.192 413.544 351.071 414.142 351.071C414.566 351.071 414.913 351.149 415.182 351.305C415.45 351.461 415.658 351.665 415.806 351.916C415.953 352.167 416.053 352.453 416.105 352.774C416.165 353.095 416.196 353.42 416.196 353.749V358ZM424.041 358H422.299V354.178C422.299 353.632 422.204 353.233 422.013 352.982C421.823 352.731 421.558 352.605 421.22 352.605C421.047 352.605 420.869 352.64 420.687 352.709C420.505 352.778 420.332 352.878 420.167 353.008C420.011 353.129 419.868 353.277 419.738 353.45C419.608 353.623 419.513 353.814 419.452 354.022V358H417.71V351.188H419.283V352.449C419.535 352.016 419.899 351.678 420.375 351.435C420.852 351.192 421.389 351.071 421.987 351.071C422.412 351.071 422.759 351.149 423.027 351.305C423.296 351.461 423.504 351.665 423.651 351.916C423.799 352.167 423.898 352.453 423.95 352.774C424.011 353.095 424.041 353.42 424.041 353.749V358ZM427.636 358.13C426.934 358.13 426.401 357.905 426.037 357.454C425.673 357.003 425.491 356.336 425.491 355.452V351.188H427.233V355.075C427.233 356.124 427.61 356.648 428.364 356.648C428.702 356.648 429.027 356.548 429.339 356.349C429.66 356.141 429.92 355.829 430.119 355.413V351.188H431.861V355.998C431.861 356.18 431.892 356.31 431.952 356.388C432.022 356.466 432.13 356.509 432.277 356.518V358C432.104 358.035 431.957 358.056 431.835 358.065C431.723 358.074 431.619 358.078 431.523 358.078C431.211 358.078 430.956 358.009 430.756 357.87C430.566 357.723 430.453 357.523 430.418 357.272L430.379 356.726C430.076 357.194 429.686 357.545 429.209 357.779C428.733 358.013 428.208 358.13 427.636 358.13ZM435.451 358.13C435.122 358.13 434.814 358.078 434.528 357.974C434.242 357.861 433.995 357.71 433.787 357.519C433.579 357.32 433.415 357.09 433.293 356.83C433.181 356.57 433.124 356.284 433.124 355.972C433.124 355.651 433.194 355.357 433.332 355.088C433.48 354.811 433.679 354.577 433.93 354.386C434.19 354.195 434.498 354.048 434.853 353.944C435.209 353.831 435.599 353.775 436.023 353.775C436.327 353.775 436.621 353.801 436.907 353.853C437.202 353.905 437.462 353.979 437.687 354.074V353.684C437.687 353.233 437.557 352.887 437.297 352.644C437.046 352.401 436.669 352.28 436.166 352.28C435.802 352.28 435.447 352.345 435.1 352.475C434.754 352.605 434.398 352.796 434.034 353.047L433.501 351.942C434.377 351.361 435.321 351.071 436.335 351.071C437.315 351.071 438.073 351.314 438.61 351.799C439.156 352.276 439.429 352.969 439.429 353.879V355.998C439.429 356.18 439.46 356.31 439.52 356.388C439.59 356.466 439.698 356.509 439.845 356.518V358C439.551 358.061 439.295 358.091 439.078 358.091C438.749 358.091 438.493 358.017 438.311 357.87C438.138 357.723 438.03 357.528 437.986 357.285L437.947 356.908C437.644 357.307 437.276 357.61 436.842 357.818C436.409 358.026 435.945 358.13 435.451 358.13ZM435.945 356.856C436.24 356.856 436.517 356.804 436.777 356.7C437.046 356.596 437.254 356.457 437.401 356.284C437.592 356.137 437.687 355.972 437.687 355.79V355.01C437.479 354.932 437.254 354.871 437.011 354.828C436.769 354.776 436.535 354.75 436.309 354.75C435.859 354.75 435.49 354.854 435.204 355.062C434.918 355.261 434.775 355.517 434.775 355.829C434.775 356.124 434.888 356.371 435.113 356.57C435.339 356.761 435.616 356.856 435.945 356.856ZM441.044 348.51H442.786V355.816C442.786 356.067 442.847 356.262 442.968 356.401C443.089 356.54 443.263 356.609 443.488 356.609C443.592 356.609 443.705 356.592 443.826 356.557C443.956 356.522 444.077 356.479 444.19 356.427L444.424 357.753C444.19 357.866 443.917 357.952 443.605 358.013C443.293 358.074 443.011 358.104 442.76 358.104C442.214 358.104 441.789 357.961 441.486 357.675C441.191 357.38 441.044 356.964 441.044 356.427V348.51ZM455.596 358V351.89L453.217 356.44H452.242L449.863 351.89V358H448.069V348.77H449.993L452.723 354.022L455.479 348.77H457.39V358H455.596ZM460.944 358.13C460.614 358.13 460.307 358.078 460.021 357.974C459.735 357.861 459.488 357.71 459.28 357.519C459.072 357.32 458.907 357.09 458.786 356.83C458.673 356.57 458.617 356.284 458.617 355.972C458.617 355.651 458.686 355.357 458.825 355.088C458.972 354.811 459.171 354.577 459.423 354.386C459.683 354.195 459.99 354.048 460.346 353.944C460.701 353.831 461.091 353.775 461.516 353.775C461.819 353.775 462.114 353.801 462.4 353.853C462.694 353.905 462.954 353.979 463.18 354.074V353.684C463.18 353.233 463.05 352.887 462.79 352.644C462.538 352.401 462.161 352.28 461.659 352.28C461.295 352.28 460.939 352.345 460.593 352.475C460.246 352.605 459.891 352.796 459.527 353.047L458.994 351.942C459.869 351.361 460.814 351.071 461.828 351.071C462.807 351.071 463.565 351.314 464.103 351.799C464.649 352.276 464.922 352.969 464.922 353.879V355.998C464.922 356.18 464.952 356.31 465.013 356.388C465.082 356.466 465.19 356.509 465.338 356.518V358C465.043 358.061 464.787 358.091 464.571 358.091C464.241 358.091 463.986 358.017 463.804 357.87C463.63 357.723 463.522 357.528 463.479 357.285L463.44 356.908C463.136 357.307 462.768 357.61 462.335 357.818C461.901 358.026 461.438 358.13 460.944 358.13ZM461.438 356.856C461.732 356.856 462.01 356.804 462.27 356.7C462.538 356.596 462.746 356.457 462.894 356.284C463.084 356.137 463.18 355.972 463.18 355.79V355.01C462.972 354.932 462.746 354.871 462.504 354.828C462.261 354.776 462.027 354.75 461.802 354.75C461.351 354.75 460.983 354.854 460.697 355.062C460.411 355.261 460.268 355.517 460.268 355.829C460.268 356.124 460.38 356.371 460.606 356.57C460.831 356.761 461.108 356.856 461.438 356.856ZM467.628 351.188L469.097 353.32L469.201 353.554L469.331 353.32L470.787 351.188H472.581L470.15 354.607L472.62 358H470.826L469.318 355.881L469.201 355.66L469.097 355.881L467.602 358H465.808L468.265 354.607L465.847 351.188H467.628Z" fill="#214E41"/>
<path d="M0 233H510V235H0V233Z" fill="#F0A446"/>
</svg>
